<svg width="234" height="85" viewBox="0 0 234 85" fill="none" xmlns="http://www.w3.org/2000/svg">
<path d="M64.259 37.101C63.0621 38.3098 62.1457 39.7687 61.5747 41.3735C61.0038 42.9785 60.7925 44.6901 60.9558 46.3865L60.899 46.3295C61.067 48.3264 60.7985 50.3357 60.113 52.2178C59.4274 54.0996 58.3411 55.8087 56.9298 57.2258C55.5182 58.6426 53.8158 59.7334 51.941 60.4214C50.0664 61.1096 48.0646 61.3791 46.0758 61.2104L46.1326 61.2675C43.7535 61.0453 41.3639 61.5649 39.2895 62.7559C37.2154 63.947 35.5575 65.7511 34.5422 67.9227C33.527 70.0943 33.2033 72.5271 33.6157 74.8902C34.0284 77.253 35.1568 79.4306 36.8472 81.126C38.5376 82.8215 40.7077 83.9523 43.0616 84.3641C45.4158 84.7762 47.8389 84.449 50.0011 83.4279C52.1633 82.4065 53.9589 80.7409 55.1434 78.6574C56.3279 76.5739 56.8436 74.1747 56.62 71.7863L56.68 71.8433C56.512 69.8467 56.7801 67.8371 57.4657 65.955C58.1513 64.0731 59.2379 62.3641 60.6492 60.947C62.0608 59.5302 63.7632 58.4394 65.6377 57.7514C67.5125 57.0632 69.514 56.7937 71.5032 56.9624L71.4432 56.9053C73.3865 57.0806 75.3429 56.7607 77.1305 55.9752C78.9179 55.1896 80.4792 53.9636 81.6691 52.4112C82.859 50.8587 83.6396 49.0295 83.9377 47.0938C84.2361 45.1577 84.0429 43.1776 83.3759 41.3364C82.709 39.4954 81.5898 37.8533 80.1223 36.562C78.6549 35.2708 76.8864 34.3724 74.981 33.9501C73.0755 33.5278 71.0945 33.595 69.2219 34.1457C67.3493 34.6967 65.6456 35.713 64.2684 37.101H64.259Z" fill="#007BFF"/>
<path d="M38.4825 54.1032L38.4225 54.0462C40.113 54.217 41.8201 54.0087 43.4209 53.4362C45.0213 52.8637 46.4752 51.9414 47.6771 50.7358C48.8786 49.5302 49.7989 48.0712 50.3701 46.4649C50.9417 44.8586 51.1504 43.1451 50.9815 41.4477L51.0415 41.5048C50.8735 39.5079 51.1419 37.4986 51.8272 35.6164C52.5128 33.7346 53.5994 32.0255 55.0106 30.6084C56.4222 29.1917 58.1246 28.1008 59.9992 27.4129C61.874 26.7246 63.8755 26.4555 65.8646 26.6238L65.8046 26.5667C68.1841 26.7912 70.5743 26.2732 72.6497 25.0834C74.7254 23.8939 76.3845 22.0904 77.4014 19.9191C78.4182 17.7482 78.7432 15.3147 78.332 12.9513C77.9209 10.5879 76.7935 8.40935 75.1034 6.71297C73.4136 5.01659 71.2435 3.88451 68.8893 3.47174C66.5351 3.05898 64.1114 3.3852 61.9485 4.40601C59.7857 5.42682 57.9895 7.09276 56.8043 9.17623C55.6192 11.2597 55.1032 13.6592 55.3267 16.048L55.2699 15.9877C55.4382 17.9847 55.1704 19.9946 54.4852 21.8767C53.7999 23.7589 52.7133 25.4683 51.302 26.8853C49.8904 28.3021 48.1877 29.393 46.3129 30.0809C44.4377 30.7689 42.4359 31.0377 40.4467 30.8687L40.5036 30.929C38.8132 30.7581 37.1057 30.9664 35.5053 31.5389C33.9049 32.1111 32.451 33.0337 31.2491 34.2393C30.0472 35.4449 29.1273 36.9039 28.5557 38.5102C27.9844 40.1166 27.7757 41.8301 27.9446 43.5274L27.8878 43.4703C28.0552 45.4669 27.7864 47.4762 27.1009 49.358C26.415 51.2396 25.3286 52.9486 23.9174 54.3654C22.5061 55.7822 20.804 56.8727 18.9295 57.5613C17.055 58.2495 15.0538 58.5193 13.0646 58.3513L13.1215 58.4084C10.7423 58.1839 8.3518 58.7019 6.27643 59.8917C4.20106 61.0815 2.54159 62.8847 1.52475 65.056C0.507907 67.2273 0.182957 69.6604 0.594115 72.0238C1.00527 74.3872 2.13296 76.5658 3.82275 78.2621C5.51285 79.9588 7.68264 81.0906 10.0369 81.5034C12.3914 81.9161 14.8151 81.5899 16.9779 80.5691C19.1404 79.5483 20.937 77.8827 22.1218 75.7992C23.307 73.7154 23.823 71.3159 23.5994 68.9271L23.6594 68.9842C23.4914 66.9873 23.7598 64.978 24.4454 63.0958C25.1306 61.214 26.2173 59.5049 27.6285 58.0878C29.0401 56.6711 30.7425 55.5802 32.6171 54.8923C34.4919 54.204 36.4934 53.9346 38.4825 54.1032Z" fill="#007BFF"/>
<path d="M19.7996 47.4295C20.9965 46.221 21.9129 44.7621 22.4832 43.157C23.0538 41.552 23.2642 39.84 23.0996 38.144L23.1596 38.201C22.9916 36.2038 23.2597 34.1936 23.946 32.3111C24.6318 30.4286 25.7188 28.7193 27.131 27.3022C28.5432 25.8851 30.2463 24.7945 32.1217 24.1069C33.9972 23.419 35.9996 23.1505 37.9891 23.3201L37.9291 23.263C40.3076 23.4865 42.6972 22.9685 44.7716 21.7787C46.8461 20.5892 48.5043 18.7863 49.5208 16.6157C50.537 14.4451 50.8616 12.0129 50.4505 9.65042C50.0393 7.28766 48.912 5.11004 47.2228 3.4143C45.5336 1.71823 43.3642 0.586785 41.0109 0.174023C38.6576 -0.238865 36.2346 0.0871604 34.0727 1.10733C31.9105 2.12751 30.1146 3.7925 28.9297 5.87502C27.7446 7.95753 27.2283 10.3564 27.4512 12.7442L27.3944 12.6872C27.5624 14.6838 27.294 16.6934 26.6084 18.5752C25.9228 20.4574 24.8365 22.1664 23.4252 23.5832C22.0136 25.0003 20.3112 26.0908 18.4364 26.7791C16.5618 27.4673 14.5601 27.7368 12.5712 27.5681L12.6281 27.6252C10.6847 27.4502 8.72869 27.7707 6.94132 28.5566C5.15395 29.3425 3.59301 30.5688 2.40343 32.1215C1.21385 33.674 0.43385 35.5032 0.13606 37.4389C-0.162045 39.375 0.0315334 41.3551 0.698797 43.1957C1.36574 45.0367 2.48522 46.6785 3.95269 47.9694C5.42017 49.2606 7.18859 50.1588 9.09406 50.581C10.9995 51.003 12.9802 50.9355 14.8528 50.3848C16.7251 49.8338 18.4288 48.8175 19.806 47.4295H19.7996Z" fill="#007BFF"/>
<path d="M119.634 54.3152L127.276 29.0803H138.77L126.265 64.4599H112.939L100.434 29.0803H111.991L119.634 54.3152ZM148.748 25.4029C146.853 25.4029 145.295 24.8535 144.074 23.7544C142.895 22.6131 142.306 21.2182 142.306 19.5697C142.306 17.879 142.895 16.4841 144.074 15.385C145.295 14.2437 146.853 13.6731 148.748 13.6731C150.601 13.6731 152.116 14.2437 153.295 15.385C154.516 16.4841 155.127 17.879 155.127 19.5697C155.127 21.2182 154.516 22.6131 153.295 23.7544C152.116 24.8535 150.601 25.4029 148.748 25.4029ZM154.117 29.0803V64.4599H143.317V29.0803H154.117ZM182.785 64.4599L176.027 54.6322L170.343 64.4599H158.659L170.28 46.3897L158.343 29.0803H170.469L177.227 38.8446L182.911 29.0803H194.596L182.785 46.8969L194.911 64.4599H182.785ZM215.115 64.9671C211.663 64.9671 208.547 64.2275 205.768 62.748C203.031 61.2684 200.863 59.1552 199.262 56.4076C197.705 53.6599 196.926 50.4476 196.926 46.7701C196.926 43.1348 197.725 39.9437 199.326 37.1961C200.926 34.4063 203.115 32.2718 205.894 30.7922C208.673 29.3127 211.789 28.5731 215.241 28.5731C218.694 28.5731 221.81 29.3127 224.589 30.7922C227.368 32.2718 229.557 34.4063 231.157 37.1961C232.757 39.9437 233.557 43.1348 233.557 46.7701C233.557 50.4054 232.736 53.6178 231.094 56.4076C229.494 59.1552 227.283 61.2684 224.462 62.748C221.684 64.2275 218.568 64.9671 215.115 64.9671ZM215.115 55.5833C217.178 55.5833 218.926 54.8225 220.357 53.3008C221.831 51.7791 222.568 49.6021 222.568 46.7701C222.568 43.9382 221.852 41.7612 220.42 40.2395C219.031 38.7178 217.304 37.9569 215.241 37.9569C213.136 37.9569 211.389 38.7178 209.999 40.2395C208.61 41.719 207.915 43.8957 207.915 46.7701C207.915 49.6021 208.589 51.7791 209.936 53.3008C211.326 54.8225 213.052 55.5833 215.115 55.5833Z" fill="white"/>
</svg>
